#N canvas 827 239 527 327 12;
#X obj 1638 765 tabread4~ drumLoop;
#X obj 1977 1090 dac~;
#N canvas 733 172 450 300 fft_stuff 0;
#X obj 992 78 inlet~;
#X obj 992 194 rfft~;
#X obj 1002 481 rifft~;
#X obj 1003 642 outlet~;
#X obj 1003 553 hann~;
#X obj 992 116 hann~;
#X obj 990 440 pol2car~;
#X obj 967 315 *~;
#X obj 1047 388 *~;
#X obj 978 232 cartopol~;
#X obj 1117 469 blocksize~;
#X obj 1152 408 loadbang;
#X obj 1132 427 bng 25 250 50 0 empty empty empty 17 7 0 10 #e4e4e4 #4d4d4d #373737;
#X obj 1117 496 expr 1 / ($f1 * 4 * 0.375);
#X obj 1003 605 *~;
#X obj 864 153 block~;
#X obj 864 88 r \$0-set-block;
#X obj 864 117 display;
#N canvas 310 128 770 262 plot 0;
#X obj 70 40 inlet~;
#X obj 121 39 inlet~;
#X obj 231 142 metro 100;
#X obj 215 40 inlet~;
#X obj 266 40 inlet~;
#X obj 231 117 loadbang;
#X obj 431 63 t f f;
#X obj 431 90 / 2;
#X obj 468 90 expr (log($f1)/log(2) - 5) * 10;
#X obj 431 40 blocksize~;
#X obj 431 119 pack f f \$0;
#X obj 70 173 tabwrite~ \$0-in;
#X obj 215 174 tabwrite~ \$0-out;
#X msg 431 152 \; \$3-in resize \$1 \, bounds 0 \$2 \$1 0 \; \$3-out resize \$1 \, \, bounds 0 \$2 \$1 0 \; \$3-filter resize \$1 \, const 1;
#X obj 270 268 samplerate~;
#X obj 366 268 blocksize~;
#X obj 365 191 bng 25 250 50 0 empty empty empty 17 7 0 10 #e4e4e4 #4d4d4d #373737;
#X obj 353 224 t b b;
#X obj 341 306 /;
#X floatatom 326 341 9 0 0 0 - - - 16;
#X obj 326 393 s \$0-stepsize;
#X obj 270 293 / 2;
#X floatatom 610 50 5 0 0 0 - - - 12;
#X obj 355 13 bng 25 250 50 0 empty empty empty 17 7 0 10 #e4e4e4 #4d4d4d #373737;
#X obj 215 75 mag~ norm;
#X obj 70 73 car2pol~;
#X connect 0 0 25 0;
#X connect 1 0 25 1;
#X connect 2 0 11 0;
#X connect 2 0 12 0;
#X connect 3 0 24 0;
#X connect 4 0 24 1;
#X connect 5 0 2 0;
#X connect 6 0 7 0;
#X connect 6 1 8 0;
#X connect 7 0 10 0;
#X connect 8 0 10 1;
#X connect 9 0 6 0;
#X connect 9 0 22 0;
#X connect 10 0 13 0;
#X connect 10 0 16 0;
#X connect 14 0 21 0;
#X connect 15 0 18 0;
#X connect 16 0 17 0;
#X connect 17 0 15 0;
#X connect 17 1 14 0;
#X connect 18 0 19 0;
#X connect 19 0 20 0;
#X connect 21 0 18 1;
#X connect 23 0 9 0;
#X connect 24 0 12 0;
#X connect 25 0 11 0;
#X restore 864 508 pd plot;
#X obj 1422 176 r \$0-stepsize;
#X floatatom 1422 209 9 0 0 0 - - - 16;
#X floatatom 1267 150 9 0 0 0 - - - 16;
#X text 1149 138 cuttoff frequency;
#X text 1523 206 "stepsize" (how much of the array we're cycling through per hz);
#X text 1418 284 This is the cuttoff spot in our fft array \, the point at which we want things to happen (tabread~ rounds to the nearest whole number);
#X obj 1350 241 *;
#X obj 1347 189 t b f;
#X floatatom 1286 255 5 0 0 0 - - - 12;
#X obj 978 370 delay~;
#X obj 1193 209 blocksize~;
#X obj 1197 170 bng 25 250 50 0 empty empty empty 17 7 0 10 #e4e4e4 #4d4d4d #373737;
#X obj 1149 232 sig~;
#X obj 1251 267 sig~;
#X obj 1136 288 %~;
#X obj 1212 315 *~;
#X msg 1301 469 1;
#X msg 1301 528 2;
#X obj 1260 315 sig~;
#X obj 1488 382 / 127;
#X floatatom 1374 360 5 0 0 0 - - - 12;
#X text 1331 525 mult (wants a number between 0 and 0.99;
#X obj 1089 349 xselect~ 3 10 1;
#X text 1331 559 bypass;
#X msg 1302 562 -1;
#X floatatom 820 349 5 0 0 0 - - - 12;
#X text 1322 456 modulo (depends a lot on the blocksize \, probably want to make it proportional to that) Has most interesting effect with higher blocksizes \; tends to wrap around;
#X text 671 340 value between 0 and 7 \; sounds really cool;
#X obj 1260 390 r fft_selector;
#X obj 1260 417 sel 0 1 2;
#X obj 1600 325 r fft_knob;
#X obj 1267 28 r fft_knob;
#X obj 1267 55 / 127;
#X obj 749 217 r fft_knob_2;
#X obj 749 261 / 127;
#X obj 749 288 * 7;
#X text 1339 45 I want this to scale with blocksize but I need to do some testing to figure out the optimal way to do this;
#X obj 1067 70 r fft_gate_knob;
#X obj 1067 100 / 127;
#X obj 1067 128 * 10;
#X obj 1538 400 / 2;
#X obj 1631 359 hsl 128 17 0 127 0 0 empty empty empty -2 -8 0 10 #e4e4e4 #4d4d4d #373737 0 1;
#X obj 1438 417 expr $f1 * $f1;
#X obj 909 408 quantizer~ 0;
#X obj 1059 278 >~ 0;
#X obj 1267 88 * 1000;
#X connect 0 0 5 0;
#X connect 1 0 9 0;
#X connect 1 0 18 0;
#X connect 1 1 9 1;
#X connect 1 1 18 1;
#X connect 2 0 4 0;
#X connect 4 0 14 0;
#X connect 5 0 1 0;
#X connect 6 0 2 0;
#X connect 6 0 18 2;
#X connect 6 1 2 1;
#X connect 6 1 18 3;
#X connect 7 0 28 0;
#X connect 8 0 6 1;
#X connect 9 0 7 0;
#X connect 9 1 8 0;
#X connect 9 1 63 0;
#X connect 10 0 13 0;
#X connect 11 0 12 0;
#X connect 12 0 10 0;
#X connect 13 0 14 1;
#X connect 14 0 3 0;
#X connect 16 0 17 0;
#X connect 17 0 15 0;
#X connect 19 0 20 0;
#X connect 20 0 25 1;
#X connect 21 0 25 0;
#X connect 25 0 27 0;
#X connect 26 0 25 0;
#X connect 26 1 25 1;
#X connect 27 0 32 0;
#X connect 28 0 62 0;
#X connect 29 0 31 0;
#X connect 30 0 29 0;
#X connect 31 0 33 0;
#X connect 31 0 34 0;
#X connect 32 0 33 1;
#X connect 33 0 41 0;
#X connect 34 0 41 1;
#X connect 35 0 41 0;
#X connect 36 0 41 0;
#X connect 37 0 34 1;
#X connect 38 0 61 0;
#X connect 39 0 37 0;
#X connect 41 0 28 1;
#X connect 43 0 41 0;
#X connect 44 0 62 1;
#X connect 47 0 48 0;
#X connect 48 0 43 0;
#X connect 48 1 35 0;
#X connect 48 2 36 0;
#X connect 49 0 59 0;
#X connect 50 0 51 0;
#X connect 51 0 64 0;
#X connect 52 0 53 0;
#X connect 53 0 54 0;
#X connect 54 0 44 0;
#X connect 56 0 57 0;
#X connect 57 0 58 0;
#X connect 58 0 63 1;
#X connect 59 0 38 0;
#X connect 60 0 59 0;
#X connect 61 0 39 0;
#X connect 62 0 6 0;
#X connect 63 0 7 1;
#X connect 63 0 8 1;
#X connect 64 0 21 0;
#X restore 1943 839 pd fft_stuff;
#X text 1325 672 Drumloop setup for testing;
#N canvas 733 172 450 300 drumloop_array_setup 0;
#N canvas 0 0 450 250 (subpatch) 0;
#X array drumLoop 125277 float 2;
#X coords 0 1 125277 -1 200 140 1;
#X restore 430 96 graph;
#X obj 697 202 soundfiler;
#X msg 697 145 read -resize loop.wav drumLoop;
#X floatatom 711 243 8 0 0 0 - - - 12;
#X obj 918 346 expr ($f1 / 44100) * 1000;
#X floatatom 916 269 5 0 0 0 - - - 12;
#X text 962 270 number of samples in soundfile;
#X floatatom 923 400 5 0 0 0 - - - 12;
#X text 980 399 length of soundfile in ms (for line~);
#X text 779 242 Outputs length in samps;
#X obj 707 54 loadbang;
#X connect 1 0 3 0;
#X connect 2 0 1 0;
#X connect 3 0 5 0;
#X connect 4 0 7 0;
#X connect 5 0 4 0;
#X connect 10 0 2 0;
#X restore 1325 540 pd drumloop_array_setup;
#X obj 1713 826 *~ 0.2;
#X obj 1508 524 sig~ 0.35;
#X obj 1508 586 *~;
#X obj 1592 556 sig~ 1;
#X floatatom 1603 492 5 0 0 0 - - - 12;
#X obj 1497 635 phasor~;
#X obj 1600 796 *~ 0.2;
#X obj 1618 852 dac~;
#X obj 1435 445 loadbang;
#X msg 1532 467 0;
#X obj 1532 685 *~ 125277;
#X obj 578 474 nbx 5 14 64 1e+37 0 0 empty empty empty 0 -8 0 10 #dcdcdc #000000 #000000 0 256;
#X obj 578 449 expr pow(2 \, $f1 + 6);
#N canvas 250 34 603 251 Window 0;
#X obj 347 168 s \$0-set-block;
#X msg 347 141 set \$1 \$2;
#X obj 247 109 v w_size_\$0;
#X obj 408 108 v overlap_\$0;
#X obj 272 30 inlet;
#X obj 379 31 inlet;
#X obj 84 74 initmess \; \$0-set-window 5 \; \$0-overlap-set 4 \; const 1;
#X obj 347 112 pack2;
#X connect 1 0 0 0;
#X connect 4 0 7 0;
#X connect 4 0 2 0;
#X connect 5 0 7 1;
#X connect 5 0 3 0;
#X connect 7 0 1 0;
#X coords 0 0 1 1 120 60 0;
#X restore 569 499 pd Window;
#X obj 650 496 nbx 2 14 1 1e+37 0 1 \$0-overlap \$0-overlap-set empty 0 -8 0 10 #dcdcdc #000000 #000000 4 256;
#X text 681 492 overlaps;
#X text 636 468 window size;
#N canvas 0 0 450 250 (subpatch) 0;
#X array \$0-in 32 float 0;
#X coords 0 10 32 0 400 140 1;
#X restore 743 272 graph;
#N canvas 0 0 450 250 (subpatch) 0;
#X array \$0-out 32 float 0;
#X coords 0 10 32 0 400 140 1;
#X restore 743 439 graph;
#X obj 1724 556 tgl 25 0 empty empty empty 17 7 0 10 #e4e4e4 #4d4d4d #373737 0 1;
#X obj 1713 602 readsf~;
#X msg 1778 562 open session.wav;
#X obj 506 151 knob 50 0 127 0 0 empty empty #e476cf #b700a0 #3a00c5 1 0 0 0 1 270 0 0 0;
#X obj 581 154 vradio 20 1 0 3 empty empty empty 0 -8 0 10 #e476cf #4d4d4d #373737 0;
#X text 606 154 Bypass;
#X text 606 174 Corkscrew;
#X text 606 195 Squeezer;
#X text 490 34 GUI;
#X obj 578 232 s fft_selector;
#X obj 506 217 s fft_knob;
#X text 411 270 FFT Quantize;
#X obj 506 271 knob 50 0 127 0 0 empty empty #e476cf #b700a0 #3a00c5 1 0 0 0 1 270 0 0 0;
#X obj 490 334 s fft_knob_2;
#X obj 588 271 vradio 20 1 0 8 empty empty empty 0 -8 0 10 #e476cf #4d4d4d #373737 0;
#X text 609 270 64;
#X text 609 291 128;
#X text 609 311 256;
#X text 609 332 512;
#X text 609 354 1024;
#X text 609 374 2048;
#X text 609 392 4096;
#X text 609 412 8192;
#X text 642 291 FFT Blocksize;
#X text 1172 332 Dry signal;
#X text 1172 499 Wet signal;
#X text 419 166 FFT Magic;
#X text 571 62 FFT;
#X text 436 404 FFT Gate;
#X obj 506 397 knob 50 0 127 0 0 empty empty #e476cf #b700a0 #3a00c5 1 0 0 0 1 270 0 0 0;
#X obj 472 454 s fft_gate_knob;
#X text 250 126 Distortion;
#X obj 343 589 knob 50 0 127 0 0 empty empty #e44965 #b7041a #e10500 1 0 0 0 1 270 0 0 0;
#X obj 1962 922 svfilter~;
#X obj 1962 959 xselect~ 4;
#X text 257 592 Filter cuttoff;
#X obj 343 643 mtof;
#X floatatom 343 669 8 0 0 0 - - - 16;
#X obj 341 710 s filter_cuttoff;
#X obj 2105 888 r filter_cuttoff;
#X obj 2105 922 r filter_q;
#X text 429 588 Q;
#X obj 465 649 / 127;
#X floatatom 465 710 5 0 0 0 - - - 12;
#X obj 460 748 s filter_q;
#X obj 609 657 knob 50 0 127 0 0 empty empty #d77ae4 #a747b7 #924dd6 1 0 0 0 1 270 0 0 0;
#X obj 1900 666 *~ 1;
#X text 2089 1016 Wet signal;
#X text 1824 1011 Dry signal;
#X text 543 672 Wet gain;
#X obj 609 589 knob 50 0 127 0 0 empty empty #d77ae4 #a747b7 #924dd6 1 0 0 0 1 270 0 0 0;
#X text 543 604 Dry gain;
#X obj 678 688 / 127;
#X obj 678 620 / 127;
#X obj 727 688 s wet;
#X obj 727 620 s dry;
#X obj 342 457 vradio 20 1 0 4 empty empty empty 0 -8 0 10 #e10500 #4d4d4d #373737 0;
#X obj 1855 789 + 1;
#X obj 1788 750 r filter_type;
#X obj 339 554 s filter_type;
#X text 371 456 Lowpass;
#X text 368 478 Highpass;
#X text 368 497 Bandpass;
#X text 368 518 Notch;
#X text 253 478 Filter type;
#X obj 2066 990 r wet;
#X obj 1827 821 r dry;
#N canvas 0 22 450 300 distortion_stage 0;
#X obj 409 143 r drive;
#X obj 388 222 inlet~;
#X text 231 221 sound comes in here;
#X text 786 344 Soft clipping (tanh) \; hard clipping (clip~) \; Wave folding (pong~) \; Bit crush (quantize);
#X obj 388 512 outlet~;
#X obj 265 340 tanh~;
#X obj 369 296 *~;
#X obj 320 340 clip~ -1 1;
#X obj 191 419 loadmess 1;
#X floatatom 248 375 5 0 0 0 - - - 12;
#X obj 395 352 pong~ 0 -1 1;
#X floatatom 453 277 5 0 0 0 - - - 12;
#X obj 487 352 pong~ 1 -1 1;
#X obj 193 319 r dist_type;
#X obj 211 346 + 1;
#X obj 479 162 / 127;
#X obj 479 215 expr $f1 * $f1;
#X obj 479 187 * 4.48;
#X text 561 178 logarithmic so it scales faster the higher you go;
#X obj 474 249 + 1;
#X obj 516 277 loadmess 1;
#X obj 579 352 quantizer~;
#X text 686 555 quantizer wants a number between 0 and 1;
#X obj 368 458 xselect~ 5;
#X connect 0 0 15 0;
#X connect 1 0 6 0;
#X connect 5 0 23 0;
#X connect 6 0 5 0;
#X connect 6 0 7 0;
#X connect 6 0 10 0;
#X connect 6 0 12 0;
#X connect 6 0 21 0;
#X connect 7 0 23 1;
#X connect 8 0 23 0;
#X connect 9 0 23 0;
#X connect 10 0 23 2;
#X connect 11 0 6 1;
#X connect 12 0 23 3;
#X connect 13 0 14 0;
#X connect 14 0 9 0;
#X connect 15 0 17 0;
#X connect 15 0 21 1;
#X connect 16 0 19 0;
#X connect 17 0 16 0;
#X connect 19 0 11 0;
#X connect 20 0 11 0;
#X connect 21 0 23 4;
#X connect 23 0 4 0;
#X restore 1944 685 pd distortion_stage;
#X obj 465 678 * 1;
#X text 1962 561 This is where the audio comes in (when I'm ready just patch in an adc~);
#X obj 1815 710 loadmess 1;
#X obj 250 151 vradio 20 1 0 5 empty empty empty 0 -8 0 10 #e4b0d1 #4d4d4d #373737 0;
#X text 128 167 Distortion type;
#X text 275 150 Soft clipping;
#X text 275 167 Hard clipping;
#X text 275 191 Wave fold;
#X text 275 209 Wave wrap;
#X obj 247 294 knob 50 0 127 0 0 empty empty #e4b0d1 #e48fd3 #8b704b 1 0 0 0 1 270 0 0 0;
#X text 197 309 Drive;
#X obj 247 262 s dist_type;
#X obj 247 357 s drive;
#X obj 465 589 knob 50 0 127 0 0 empty empty #e44965 #b7041a #e10500 1 0 0 0 1 270 0 0 0;
#X text 275 232 Quantize;
#X text 172 386 Bit crush;
#X obj 1962 796 crusher~;
#X obj 172 425 knob 50 0 127 0 0 empty empty #e4b0d1 #e48fd3 #8b704b 1 0 0 0 1 270 0 0 0;
#X text 21 424 Sample rate reduction;
#X obj 172 523 knob 50 0 127 0 0 empty empty #e4b0d1 #e48fd3 #8b704b 1 0 0 0 1 270 0 0 0;
#X text 76 522 Bit reduction;
#X obj 141 487 s samp_rate;
#X obj 177 597 s bit;
#X obj 1987 717 r samp_rate;
#X obj 1987 750 / 127;
#X obj 2078 750 / 127;
#X obj 2078 717 r bit;
#X obj 1970 879 xselect~ 2;
#X obj 2038 829 + 1;
#X obj 2095 802 r bypass_fft;
#X obj 506 91 tgl 48 0 empty empty empty 17 7 0 10 #e476cf #000000 #373737 0 1;
#X text 419 96 Enable FFT;
#X obj 581 111 s bypass_fft;
#X text 1331 922 TODO \; Set up for presentation mode \; Maybe try to get some more sophisticated plotting of wet and dry signals;
#X obj 1900 1012 *~ 0;
#X obj 2025 1012 *~ 0;
#X obj 1901 598 adc~;
#X text 747 98 Figure out why fft is sounding weird even when it's meant to be bypassing the "magic" \; Make sure it works with initial settings \; Apply filter to "dry" signal too \, optionally (have another xselector in there and a toggle);
#X connect 0 0 5 0;
#X connect 0 0 70 0;
#X connect 2 0 119 1;
#X connect 6 0 7 0;
#X connect 7 0 10 0;
#X connect 8 0 7 1;
#X connect 9 0 8 0;
#X connect 10 0 15 0;
#X connect 11 0 12 0;
#X connect 11 0 12 1;
#X connect 13 0 14 0;
#X connect 14 0 9 0;
#X connect 15 0 0 0;
#X connect 16 0 18 0;
#X connect 17 0 16 0;
#X connect 19 0 18 1;
#X connect 24 0 25 0;
#X connect 25 0 70 0;
#X connect 26 0 25 0;
#X connect 27 0 34 0;
#X connect 28 0 33 0;
#X connect 36 0 37 0;
#X connect 38 0 17 0;
#X connect 53 0 54 0;
#X connect 56 0 60 0;
#X connect 57 0 58 0;
#X connect 57 1 58 1;
#X connect 57 2 58 2;
#X connect 57 3 58 3;
#X connect 58 0 127 0;
#X connect 60 0 61 0;
#X connect 61 0 62 0;
#X connect 63 0 57 1;
#X connect 64 0 57 2;
#X connect 66 0 92 0;
#X connect 67 0 68 0;
#X connect 69 0 76 0;
#X connect 70 0 91 0;
#X connect 70 0 126 0;
#X connect 74 0 77 0;
#X connect 76 0 78 0;
#X connect 77 0 79 0;
#X connect 80 0 83 0;
#X connect 81 0 58 0;
#X connect 82 0 81 0;
#X connect 89 0 127 1;
#X connect 90 0 126 1;
#X connect 91 0 108 0;
#X connect 92 0 67 0;
#X connect 94 0 58 0;
#X connect 95 0 103 0;
#X connect 101 0 104 0;
#X connect 105 0 66 0;
#X connect 108 0 2 0;
#X connect 108 0 119 0;
#X connect 109 0 113 0;
#X connect 111 0 114 0;
#X connect 115 0 116 0;
#X connect 116 0 108 2;
#X connect 117 0 108 1;
#X connect 118 0 117 0;
#X connect 119 0 57 0;
#X connect 120 0 119 0;
#X connect 121 0 120 0;
#X connect 122 0 124 0;
#X connect 126 0 1 0;
#X connect 126 0 1 1;
#X connect 127 0 1 0;
#X connect 127 0 1 1;
#X connect 128 0 70 0;
#X connect 128 1 70 0;
